<svg version="1.1" xmlns="http://www.w3.org/2000/svg" viewBox="0 0 24 24">
<path d="M14.495,12l6.984-6.984c0.331-0.331,0.518-0.78,0.518-1.248c0-0.468-0.185-0.917-0.516-1.25C21.151,2.188,20.702,2,20.233,2
	s-0.917,0.185-1.25,0.516L12,9.501L5.016,2.517C4.685,2.186,4.235,2,3.767,2s-0.919,0.186-1.25,0.517S2,3.298,2,3.767
	s0.186,0.919,0.517,1.25L9.501,12l-6.984,6.984C2.186,19.315,2,19.765,2,20.233c0,0.468,0.186,0.919,0.517,1.25S3.298,22,3.767,22
	s0.919-0.186,1.25-0.517L12,14.499l6.984,6.984C19.315,21.814,19.765,22,20.233,22s0.919-0.186,1.25-0.517S22,20.702,22,20.233
	c0-0.468-0.186-0.919-0.517-1.25L14.495,12z"/>
</svg>
