<svg xmlns="http://www.w3.org/2000/svg" xmlns:xlink="http://www.w3.org/1999/xlink" viewBox="0 0 24 24" xml:space="preserve">
<path d="M11.993,21.834c-0.146,0-0.289-0.021-0.427-0.062c-0.315-0.094-0.515-0.27-0.747-0.474
	c-1.964-1.739-6.688-5.993-8.344-8.125C0.146,10.178,0.589,6.041,3.505,3.55C4.691,2.536,6.105,2,7.592,2
	c1.589,0,3.146,0.615,4.401,1.716c1.249-1.094,2.797-1.706,4.376-1.706c1.478,0,2.896,0.529,4.102,1.531
	c2.905,2.415,3.362,6.646,1.041,9.633c-1.652,2.127-6.379,6.384-8.334,8.116c-0.243,0.214-0.442,0.389-0.757,0.482
	C12.281,21.813,12.138,21.834,11.993,21.834z"/>
</svg>
